<svg width="1103" height="188" viewBox="0 0 1103 188" fill="none" xmlns="http://www.w3.org/2000/svg">
<path d="M69.8949 187.874C50.0175 187.874 33.4824 181.303 20.2894 168.159C7.09648 154.84 0.5 138.367 0.5 118.74C0.5 99.1124 7.09648 82.727 20.2894 69.5836C33.4824 56.2649 50.0175 49.6056 69.8949 49.6056C82.912 49.6056 94.6097 52.76 104.988 59.0688C115.367 65.2024 123.107 73.5266 128.208 84.0413L108.946 95.0818C105.604 88.0719 100.415 82.4641 93.3784 78.2582C86.5181 74.0523 78.6902 71.9494 69.8949 71.9494C56.702 71.9494 45.6199 76.4181 36.6487 85.3556C27.8534 94.2932 23.4557 105.421 23.4557 118.74C23.4557 131.883 27.8534 142.924 36.6487 151.861C45.6199 160.799 56.702 165.268 69.8949 165.268C78.6902 165.268 86.606 163.252 93.6423 159.222C100.679 155.016 106.044 149.408 109.738 142.398L129.263 153.701C123.634 164.041 115.543 172.365 104.988 178.674C94.4338 184.807 82.7361 187.874 69.8949 187.874Z" fill="#1E1E1E"/>
<path d="M261.473 167.896C247.928 181.215 231.481 187.874 212.131 187.874C192.782 187.874 176.335 181.215 162.79 167.896C149.421 154.578 142.737 138.192 142.737 118.74C142.737 99.2877 149.421 82.9022 162.79 69.5836C176.335 56.2649 192.782 49.6056 212.131 49.6056C231.481 49.6056 247.928 56.2649 261.473 69.5836C275.018 82.9022 281.79 99.2877 281.79 118.74C281.79 138.192 275.018 154.578 261.473 167.896ZM212.131 165.53C225.324 165.53 236.406 161.062 245.378 152.124C254.349 143.187 258.835 132.059 258.835 118.74C258.835 105.421 254.349 94.2932 245.378 85.3556C236.406 76.4181 225.324 71.9494 212.131 71.9494C199.114 71.9494 188.12 76.4181 179.149 85.3556C170.178 94.2932 165.692 105.421 165.692 118.74C165.692 132.059 170.178 143.187 179.149 152.124C188.12 161.062 199.114 165.53 212.131 165.53Z" fill="#1E1E1E"/>
<path d="M418.09 0.449219H441.046V184.457H418.09V161.85C406.656 179.2 390.033 187.874 368.221 187.874C349.75 187.874 334.007 181.215 320.99 167.896C307.973 154.402 301.464 138.017 301.464 118.74C301.464 99.4629 307.973 83.1651 320.99 69.8464C334.007 56.3525 349.75 49.6056 368.221 49.6056C390.033 49.6056 406.656 58.2802 418.09 75.6295V0.449219ZM371.123 165.793C384.492 165.793 395.662 161.325 404.633 152.387C413.604 143.274 418.09 132.059 418.09 118.74C418.09 105.421 413.604 94.2932 404.633 85.3556C395.662 76.2429 384.492 71.6865 371.123 71.6865C357.93 71.6865 346.848 76.2429 337.877 85.3556C328.906 94.2932 324.42 105.421 324.42 118.74C324.42 132.059 328.906 143.274 337.877 152.387C346.848 161.325 357.93 165.793 371.123 165.793Z" fill="#1E1E1E"/>
<path d="M491.921 129.255C494.208 140.996 499.573 150.109 508.016 156.593C516.636 163.077 527.19 166.319 539.679 166.319C557.094 166.319 569.759 159.923 577.675 147.13L597.201 158.17C584.36 177.973 565.01 187.874 539.152 187.874C518.219 187.874 501.156 181.39 487.963 168.422C474.946 155.279 468.438 138.718 468.438 118.74C468.438 98.9372 474.858 82.4641 487.699 69.3207C500.54 56.1773 517.164 49.6056 537.569 49.6056C556.918 49.6056 572.662 56.4401 584.799 70.1093C597.113 83.6032 603.27 99.901 603.27 119.003C603.27 122.332 603.006 125.75 602.478 129.255H491.921ZM537.569 71.1608C525.255 71.1608 515.053 74.6657 506.961 81.6755C498.869 88.5101 493.856 97.7105 491.921 109.277H580.05C578.115 96.8342 573.19 87.371 565.274 80.8869C557.358 74.4028 548.123 71.1608 537.569 71.1608Z" fill="#1E1E1E"/>
<path d="M648.835 162.639H719.021V184.457H617.435V169.211L684.719 74.8409H620.074V53.0229H716.383V68.2692L648.835 162.639Z" fill="#1E1E1E"/>
<path d="M754.234 129.255C756.521 140.996 761.886 150.109 770.329 156.593C778.949 163.077 789.503 166.319 801.992 166.319C819.407 166.319 832.072 159.923 839.988 147.13L859.514 158.17C846.673 177.973 827.323 187.874 801.465 187.874C780.532 187.874 763.469 181.39 750.276 168.422C737.259 155.279 730.751 138.718 730.751 118.74C730.751 98.9372 737.171 82.4641 750.012 69.3207C762.853 56.1773 779.477 49.6056 799.882 49.6056C819.231 49.6056 834.975 56.4401 847.112 70.1093C859.426 83.6032 865.583 99.901 865.583 119.003C865.583 122.332 865.319 125.75 864.791 129.255H754.234ZM799.882 71.1608C787.568 71.1608 777.366 74.6657 769.274 81.6755C761.182 88.5101 756.169 97.7105 754.234 109.277H842.363C840.428 96.8342 835.503 87.371 827.587 80.8869C819.671 74.4028 810.436 71.1608 799.882 71.1608Z" fill="#1E1E1E"/>
<path d="M914.926 75.1038C922.49 58.806 936.211 50.657 956.088 50.657V74.578C944.83 74.0523 935.155 77.0315 927.064 83.5156C918.972 89.9996 914.926 100.427 914.926 114.797V184.457H891.971V53.0229H914.926V75.1038Z" fill="#1E1E1E"/>
<path fill-rule="evenodd" clip-rule="evenodd" d="M983.982 164.298C972.768 151.671 967.116 136.875 967.023 119.909C967.098 101.393 973.844 85.4263 987.262 72.0091C1000.68 58.5919 1016.6 51.8897 1035.03 51.9024C1052.08 51.9141 1066.92 57.5235 1079.55 68.7306L1061.87 86.4124C1054.22 80.086 1045.45 76.9194 1035.57 76.9127C1024.17 76.9048 1014.08 81.2856 1005.31 90.055C996.538 98.8244 992.157 108.913 992.165 120.321C992.248 130.127 995.457 138.849 1001.79 146.486L983.982 164.298Z" fill="url(#paint0_linear_929_95809)"/>
<path fill-rule="evenodd" clip-rule="evenodd" d="M1008.56 153.226L990.743 171.043C1003.34 182.174 1018.09 187.786 1034.99 187.877C1053.6 187.89 1069.61 181.188 1083.02 167.771C1096.44 154.354 1103.1 138.387 1103 119.871C1102.99 102.887 1097.42 88.0945 1086.29 75.4914L1068.61 93.1779C1074.85 100.791 1077.98 109.507 1077.99 119.327C1078 130.735 1073.61 140.824 1064.84 149.593C1056.08 158.363 1045.99 162.743 1034.58 162.735C1024.84 162.653 1016.16 159.484 1008.56 153.226Z" fill="url(#paint1_linear_929_95809)"/>
<defs>
<linearGradient id="paint0_linear_929_95809" x1="1035.01" y1="57.6797" x2="1035.01" y2="162.704" gradientUnits="userSpaceOnUse">
<stop stop-color="#FAF000"/>
<stop offset="0.484391" stop-color="#FBB910"/>
<stop offset="1" stop-color="#D05C29"/>
</linearGradient>
<linearGradient id="paint1_linear_929_95809" x1="1089.31" y1="82.2912" x2="1025.47" y2="167.617" gradientUnits="userSpaceOnUse">
<stop stop-color="#C7115D"/>
<stop offset="1" stop-color="#D05B28"/>
</linearGradient>
</defs>
</svg>
