<svg width="1104" height="188" viewBox="0 0 1104 188" fill="none" xmlns="http://www.w3.org/2000/svg">
<path d="M70.2231 187.87C50.3457 187.87 33.8105 181.299 20.6176 168.155C7.4246 154.837 0.828125 138.363 0.828125 118.736C0.828125 99.1085 7.4246 82.723 20.6176 69.5796C33.8105 56.261 50.3457 49.6017 70.2231 49.6017C83.2401 49.6017 94.9379 52.7561 105.316 59.0649C115.695 65.1985 123.435 73.5227 128.536 84.0374L109.274 95.0779C105.932 88.068 100.743 82.4602 93.7065 78.2543C86.8462 74.0484 79.0184 71.9455 70.2231 71.9455C57.0301 71.9455 45.948 76.4142 36.9768 85.3517C28.1815 94.2892 23.7839 105.417 23.7839 118.736C23.7839 131.879 28.1815 142.92 36.9768 151.857C45.948 160.795 57.0301 165.264 70.2231 165.264C79.0184 165.264 86.9341 163.248 93.9704 159.218C101.007 155.012 106.372 149.404 110.066 142.394L129.591 153.697C123.962 164.037 115.871 172.361 105.316 178.67C94.762 184.804 83.0642 187.87 70.2231 187.87Z" fill="white"/>
<path d="M261.801 167.892C248.256 181.211 231.809 187.87 212.46 187.87C193.11 187.87 176.663 181.211 163.118 167.892C149.749 154.574 143.065 138.188 143.065 118.736C143.065 99.2838 149.749 82.8983 163.118 69.5796C176.663 56.261 193.11 49.6017 212.46 49.6017C231.809 49.6017 248.256 56.261 261.801 69.5796C275.346 82.8983 282.118 99.2838 282.118 118.736C282.118 138.188 275.346 154.574 261.801 167.892ZM212.46 165.527C225.653 165.527 236.735 161.058 245.706 152.12C254.677 143.183 259.163 132.055 259.163 118.736C259.163 105.417 254.677 94.2892 245.706 85.3517C236.735 76.4142 225.653 71.9455 212.46 71.9455C199.443 71.9455 188.448 76.4142 179.477 85.3517C170.506 94.2892 166.02 105.417 166.02 118.736C166.02 132.055 170.506 143.183 179.477 152.12C188.448 161.058 199.443 165.527 212.46 165.527Z" fill="white"/>
<path d="M418.418 0.445312H441.374V184.453H418.418V161.846C406.984 179.196 390.361 187.87 368.549 187.87C350.079 187.87 334.335 181.211 321.318 167.892C308.301 154.398 301.792 138.013 301.792 118.736C301.792 99.459 308.301 83.1612 321.318 69.8425C334.335 56.3486 350.079 49.6017 368.549 49.6017C390.361 49.6017 406.984 58.2763 418.418 75.6256V0.445312ZM371.451 165.789C384.82 165.789 395.99 161.321 404.961 152.383C413.932 143.27 418.418 132.055 418.418 118.736C418.418 105.417 413.932 94.2892 404.961 85.3517C395.99 76.239 384.82 71.6826 371.451 71.6826C358.258 71.6826 347.176 76.239 338.205 85.3517C329.234 94.2892 324.748 105.417 324.748 118.736C324.748 132.055 329.234 143.27 338.205 152.383C347.176 161.321 358.258 165.789 371.451 165.789Z" fill="white"/>
<path d="M492.249 129.251C494.536 140.992 499.901 150.105 508.345 156.589C516.964 163.073 527.518 166.315 540.008 166.315C557.422 166.315 570.088 159.919 578.003 147.126L597.529 158.166C584.688 177.969 565.338 187.87 539.48 187.87C518.547 187.87 501.484 181.386 488.291 168.418C475.274 155.275 468.766 138.714 468.766 118.736C468.766 98.9333 475.186 82.4602 488.027 69.3168C500.869 56.1734 517.492 49.6017 537.897 49.6017C557.246 49.6017 572.99 56.4362 585.128 70.1054C597.441 83.5993 603.598 99.8971 603.598 118.999C603.598 122.329 603.334 125.746 602.806 129.251H492.249ZM537.897 71.1569C525.583 71.1569 515.381 74.6618 507.289 81.6716C499.197 88.5061 494.184 97.7065 492.249 109.273H580.378C578.443 96.8303 573.518 87.3671 565.602 80.883C557.686 74.3989 548.451 71.1569 537.897 71.1569Z" fill="white"/>
<path d="M649.163 162.635H719.349V184.453H617.764V169.207L685.048 74.837H620.402V53.019H716.711V68.2653L649.163 162.635Z" fill="white"/>
<path d="M754.562 129.251C756.849 140.992 762.214 150.105 770.658 156.589C779.277 163.073 789.831 166.315 802.321 166.315C819.735 166.315 832.401 159.919 840.316 147.126L859.842 158.166C847.001 177.969 827.651 187.87 801.793 187.87C780.86 187.87 763.797 181.386 750.604 168.418C737.587 155.275 731.079 138.714 731.079 118.736C731.079 98.9333 737.499 82.4602 750.34 69.3168C763.182 56.1734 779.805 49.6017 800.21 49.6017C819.559 49.6017 835.303 56.4362 847.441 70.1054C859.754 83.5993 865.911 99.8971 865.911 118.999C865.911 122.329 865.647 125.746 865.119 129.251H754.562ZM800.21 71.1569C787.896 71.1569 777.694 74.6618 769.602 81.6716C761.51 88.5061 756.497 97.7065 754.562 109.273H842.691C840.756 96.8303 835.831 87.3671 827.915 80.883C819.999 74.3989 810.764 71.1569 800.21 71.1569Z" fill="white"/>
<path d="M915.254 75.0999C922.818 58.802 936.539 50.6531 956.416 50.6531V74.5741C945.158 74.0484 935.484 77.0276 927.392 83.5117C919.3 89.9957 915.254 100.423 915.254 114.793V184.453H892.299V53.019H915.254V75.0999Z" fill="white"/>
<path fill-rule="evenodd" clip-rule="evenodd" d="M984.31 164.29C973.097 151.663 967.444 136.867 967.352 119.901C967.427 101.385 974.173 85.4184 987.59 72.0013C1001.01 58.5841 1016.93 51.8819 1035.36 51.8945C1052.4 51.9063 1067.24 57.5157 1079.88 68.7228L1062.2 86.4046C1054.55 80.0782 1045.78 76.9116 1035.9 76.9048C1024.49 76.897 1014.4 81.2778 1005.64 90.0472C996.866 98.8165 992.485 108.905 992.493 120.313C992.576 130.119 995.786 138.841 1002.12 146.478L984.31 164.29Z" fill="url(#paint0_linear_929_95805)"/>
<path fill-rule="evenodd" clip-rule="evenodd" d="M1008.89 153.218L991.071 171.035C1003.67 182.166 1018.42 187.778 1035.32 187.87C1053.92 187.882 1069.93 181.18 1083.35 167.763C1096.77 154.346 1103.43 138.379 1103.33 119.863C1103.31 102.88 1097.75 88.0867 1086.62 75.4836L1068.93 93.1701C1075.18 100.783 1078.31 109.5 1078.32 119.319C1078.32 130.727 1073.94 140.816 1065.17 149.585C1056.4 158.355 1046.32 162.736 1034.91 162.728C1025.16 162.645 1016.49 159.476 1008.89 153.218Z" fill="url(#paint1_linear_929_95805)"/>
<defs>
<linearGradient id="paint0_linear_929_95805" x1="1035.34" y1="57.6719" x2="1035.34" y2="162.697" gradientUnits="userSpaceOnUse">
<stop stop-color="white"/>
<stop offset="0.484391" stop-color="#FBB910"/>
<stop offset="1" stop-color="#D05C29"/>
</linearGradient>
<linearGradient id="paint1_linear_929_95805" x1="1089.64" y1="82.2834" x2="1025.8" y2="167.609" gradientUnits="userSpaceOnUse">
<stop stop-color="#C7115D"/>
<stop offset="1" stop-color="#D05B28"/>
</linearGradient>
</defs>
</svg>
