<svg id="Layer_1" data-name="Layer 1" xmlns="http://www.w3.org/2000/svg" viewBox="0 0 540.46 192.38"><defs><style>.cls-1{fill:#fae170;}.cls-2{fill:#09c1d1;}.cls-3{fill:#416edd;}.cls-4{fill:#e7d46b;}.cls-5{fill:#275fa9;}.cls-6{fill:#ff5a00;}.cls-7{fill:#ec4600;}.cls-8{fill:#ec5501;}.cls-9{fill:#2a343e;}</style></defs><path class="cls-1" d="M13.48,24.25l0,0C32.4,34.76,49.78,43.18,65,49.88c12.09,5.33,22.81,9.57,31.78,12.88,6.71-15.21,15.14-32.61,25.64-51.52C53.35-1.44,13.48,24.25,13.48,24.25Z" transform="translate(-9.93 -7.73)"/><path class="cls-2" d="M135.37,120.21A600.65,600.65,0,0,0,52.09,81.7C45.38,96.91,37,114.31,26.46,133.22,95.5,145.9,135.37,120.21,135.37,120.21Z" transform="translate(-9.93 -7.73)"/><path class="cls-3" d="M13.52,24.28l-.08,0c-12.68,69.05,13,108.92,13,108.92h0C37,114.31,45.38,96.91,52.09,81.7,57.43,69.59,61.67,58.86,65,49.88,49.78,43.18,32.4,34.76,13.52,24.28Z" transform="translate(-9.93 -7.73)"/><path class="cls-4" d="M13.57,24.28C32.45,34.76,49.83,43.18,65,49.88c7-19,9.85-30.25,10.11-30.35C75.15,19.53,45.75,12.89,13.57,24.28Z" transform="translate(-9.93 -7.73)"/><path class="cls-5" d="M21.67,71.47S15,100.9,26.44,133.12h0c10.5-18.91,18.93-36.31,25.63-51.52C33,74.58,21.77,71.73,21.67,71.47Z" transform="translate(-9.93 -7.73)"/><path class="cls-6" d="M122.4,11.24h0c-10.5,18.91-18.93,36.31-25.64,51.52-16.64,37.76-22.61,62-23,62.17,0,0,29.43,6.65,61.65-4.77C148.09,51.11,122.4,11.24,122.4,11.24Z" transform="translate(-9.93 -7.73)"/><path class="cls-7" d="M73.76,124.93s29.39,6.64,61.58-4.74c-18.88-10.49-36.26-18.91-51.46-25.61C76.87,113.6,74,124.83,73.76,124.93Z" transform="translate(-9.93 -7.73)"/><path class="cls-8" d="M122.37,11.24h0c-10.5,18.9-18.93,36.3-25.63,51.52,19.05,7,30.3,9.87,30.4,10.13C127.14,72.9,133.79,43.46,122.37,11.24Z" transform="translate(-9.93 -7.73)"/><path class="cls-9" d="M117.83,173.44c0-15.31,11.56-26.67,27.38-26.67a27.5,27.5,0,0,1,19.87,7.81c1.22,1.22,1.93,2.84,0,4.77l-3.55,3.54c-1.31,1.22-2.73,1.73-4.86-.1a15.25,15.25,0,0,0-11.06-4.36c-8.41,0-14.4,6.39-14.4,15s5.68,15,14.4,15a15.68,15.68,0,0,0,11.06-4.36c2.13-1.93,3.55-1.42,4.86-.1l3.55,3.54c1.93,1.93,1.22,3.45,0,4.67a27.23,27.23,0,0,1-19.87,7.91C129.39,200.11,117.83,188.65,117.83,173.44Z" transform="translate(-9.93 -7.73)"/><path class="cls-9" d="M169.24,173.44c0-15.21,11.76-26.67,27.78-26.67s27.68,11.46,27.68,26.67S213,200.11,197,200.11,169.24,188.65,169.24,173.44Zm42.08,0c0-8.62-6-15-14.3-15s-14.4,6.39-14.4,15,6,14.91,14.4,14.91S211.32,182.06,211.32,173.44Z" transform="translate(-9.93 -7.73)"/><path class="cls-9" d="M283.91,130.24v64.6a3.6,3.6,0,0,1-3.85,3.95H276c-2.43,0-3.75-1.52-3.75-3.95v-2.13a22.44,22.44,0,0,1-16.94,7.4c-14.9,0-25.55-11.76-25.55-26.67s10.65-26.67,25.55-26.67a25.44,25.44,0,0,1,15.11,5V131.46c0-2.33,1.32-3.35,3.75-4l5.68-1C282.59,126,283.91,127.61,283.91,130.24Zm-12.68,43.2c0-9.63-6.28-15-14-15-8.52,0-14.09,6.69-14.09,15s5.57,14.91,14.09,14.91C265,188.35,271.23,183,271.23,173.44Z" transform="translate(-9.93 -7.73)"/><path class="cls-9" d="M318.46,189.87a20.63,20.63,0,0,0,12.88-4.57c1.82-1.42,3.24-1.72,4.86,0l2.44,2.44c1.92,1.92,1.11,3.45,0,4.66-5.17,5.27-14.2,7.71-21.4,7.71-15.21,0-27.58-10.45-27.58-26.67,0-15.31,11.26-26.67,26.57-26.67,7.7,0,14.19,2.74,18.56,7.1a25.74,25.74,0,0,1,7.4,18.46c0,2.83-1.12,4.15-4.16,4.15H302.94C303.76,185.1,310.65,189.87,318.46,189.87Zm-15.41-21.7h26a13.76,13.76,0,0,0-3.66-7.71,12.28,12.28,0,0,0-9.32-3.75C309,156.71,304.06,161.17,303.05,168.17Z" transform="translate(-9.93 -7.73)"/><path class="cls-9" d="M355.2,194.84v-3.55c0-2,1.21-3.35,3.55-5.89l23.32-27.78H360c-2.53,0-3.95-1.42-3.95-3.85v-2.44c0-2.43,1.52-3.75,3.95-3.75h34a3.6,3.6,0,0,1,4,3.86V155c0,2-1.32,3.55-3.55,6.09l-22.61,27.68h23.82c2.44,0,3.86,1.32,3.86,3.75v2.44c0,2.43-1.32,3.85-3.86,3.85h-36.4A3.67,3.67,0,0,1,355.2,194.84Z" transform="translate(-9.93 -7.73)"/><path class="cls-9" d="M430.34,189.87a20.61,20.61,0,0,0,12.87-4.57c1.83-1.42,3.25-1.72,4.87,0l2.43,2.44c1.93,1.92,1.12,3.45,0,4.66-5.17,5.27-14.19,7.71-21.39,7.71-15.21,0-27.58-10.45-27.58-26.67,0-15.31,11.25-26.67,26.57-26.67,7.7,0,14.19,2.74,18.55,7.1a25.7,25.7,0,0,1,7.4,18.46c0,2.83-1.11,4.15-4.15,4.15H414.82C415.63,185.1,422.53,189.87,430.34,189.87Zm-15.42-21.7h26a13.75,13.75,0,0,0-3.65-7.71,12.29,12.29,0,0,0-9.33-3.75C420.91,156.71,415.94,161.17,414.92,168.17Z" transform="translate(-9.93 -7.73)"/><path class="cls-9" d="M495.23,151.74l-1.32,5.07c-.71,2.54-2.33,2.84-4.05,2.33a14.07,14.07,0,0,0-4.47-.81c-6.69,0-10.44,5.07-10.44,12.37v24.14c0,2.43-1.32,3.95-3.75,3.95h-5.88a3.6,3.6,0,0,1-3.86-3.95v-43.4a3.53,3.53,0,0,1,3.86-3.86h3.85a3.52,3.52,0,0,1,3.85,3.86v3.14c3.25-4.87,7.81-7.81,13.59-7.81a20.93,20.93,0,0,1,6.39.91C494.52,148.19,495.94,149,495.23,151.74Z" transform="translate(-9.93 -7.73)"/><path class="cls-9" d="M494.92,173.44c0-15.21,11.76-26.67,27.78-26.67s27.69,11.46,27.69,26.67-11.66,26.67-27.69,26.67S494.92,188.65,494.92,173.44Zm42.08,0c0-8.62-6-15-14.3-15s-14.4,6.39-14.4,15,6,14.91,14.4,14.91S537,182.06,537,173.44Z" transform="translate(-9.93 -7.73)"/></svg>